# xmcd
#
# Track frame offsets: 
#        150
#        18428
#        33300
#        46286
#        59651
#        74190
#        90034
#        102558
#        117333
#        130046
#        143619
#        158326
#        170098
#
# Disc length: 2465 seconds
#
# Revision: 0
# Processed by: cddbd v1.5.2PL0 Copyright (c) Steve Scherf et al.
# Submitted via: ExactAudioCopyFreeDBPlugin 1.0
#
DISCID=ad099f0d
DTITLE=John England and the Western Swingers - Songs Older Than Pappy
DYEAR=2013
DGENRE=Country
TTITLE0=Pecos Bill
TTITLE1=Shortnin' Bread
TTITLE2=When You and I Were Young, Maggie
TTITLE3=On Moonlight Bay
TTITLE4=Cindy
TTITLE5=Yellow Rose of Texas
TTITLE6=Drums on the Cumberland
TTITLE7=Yodelin' Days
TTITLE8=Smiles
TTITLE9=Sugar Blues
TTITLE10=Carry Me Back to Old Virginny
TTITLE11=Fiddler's Waltz
TTITLE12=Goodbye Liza Jane
EXTD=
EXTT0=
EXTT1=
EXTT2=
EXTT3=
EXTT4=
EXTT5=
EXTT6=
EXTT7=
EXTT8=
EXTT9=
EXTT10=
EXTT11=
EXTT12=
PLAYORDER=
